  <svg xmlns="http://www.w3.org/2000/svg" width="16" height="12">
      <path
        d="M 0 0.5 C 0 0.224 0.224 0 0.5 0 L 15.5 0 C 15.776 0 16 0.224 16 0.5 L 16 0.5 C 16 0.776 15.776 1 15.5 1 L 0.5 1 C 0.224 1 0 0.776 0 0.5 Z"
        fill="currentColor"
      ></path>
      <path
        d="M 0 11.5 C 0 11.224 0.224 11 0.5 11 L 15.5 11 C 15.776 11 16 11.224 16 11.5 L 16 11.5 C 16 11.776 15.776 12 15.5 12 L 0.5 12 C 0.224 12 0 11.776 0 11.5 Z"
        fill="currentColor"
      ></path>
      <path
        d="M 3 5 C 3 3.895 3.895 3 5 3 L 11 3 C 12.105 3 13 3.895 13 5 L 13 7 C 13 8.105 12.105 9 11 9 L 5 9 C 3.895 9 3 8.105 3 7 Z"
        fill="currentColor"
      ></path>
    </svg>