<svg xmlns="http://www.w3.org/2000/svg" width="16" height="16"><path d="M 4.539 6.892 C 5.726 6.655 6.655 5.726 6.892 4.539 L 7.318 2.409 C 7.467 1.664 8.533 1.664 8.682 2.409 L 9.108 4.539 C 9.345 5.726 10.274 6.655 11.461 6.892 L 13.591 7.318 C 14.336 7.467 14.336 8.533 13.591 8.682 L 11.461 9.108 C 10.274 9.345 9.345 10.274 9.108 11.461 L 8.682 13.591 C 8.533 14.336 7.467 14.336 7.318 13.591 L 6.892 11.461 C 6.655 10.274 5.726 9.345 4.539 9.108 L 2.409 8.682 C 1.664 8.533 1.664 7.467 2.409 7.318 Z" fill="currentColor"></path></svg>